<mxfile host="app.diagrams.net" agent="Mozilla/5.0 (Windows NT 10.0; Win64; x64) AppleWebKit/537.36 (KHTML, like Gecko) Chrome/128.0.0.0 Safari/537.36" version="24.7.12">
  <diagram name="Page-1" id="GBJ82YpKSsnOV0TjCNx1">
    <mxGraphModel dx="2444" dy="1835" grid="1" gridSize="10" guides="1" tooltips="1" connect="1" arrows="1" fold="1" page="1" pageScale="1" pageWidth="850" pageHeight="1100" math="0" shadow="0">
      <root>
        <mxCell id="0" />
        <mxCell id="1" parent="0" />
        <mxCell id="zwWPfgIZnlJsHh6AUtGG-10" value="" style="group" vertex="1" connectable="0" parent="1">
          <mxGeometry x="40" y="60" width="330" height="390" as="geometry" />
        </mxCell>
        <mxCell id="ZK7JMzUmp4q62pneLcJM-21" style="edgeStyle=orthogonalEdgeStyle;rounded=0;orthogonalLoop=1;jettySize=auto;html=1;entryX=1;entryY=0.5;entryDx=0;entryDy=0;" parent="zwWPfgIZnlJsHh6AUtGG-10" source="ZK7JMzUmp4q62pneLcJM-16" target="ZK7JMzUmp4q62pneLcJM-28" edge="1">
          <mxGeometry relative="1" as="geometry">
            <mxPoint x="100" y="170" as="targetPoint" />
          </mxGeometry>
        </mxCell>
        <mxCell id="ZK7JMzUmp4q62pneLcJM-24" style="edgeStyle=orthogonalEdgeStyle;rounded=0;orthogonalLoop=1;jettySize=auto;html=1;entryX=1;entryY=0.5;entryDx=0;entryDy=0;" parent="zwWPfgIZnlJsHh6AUtGG-10" source="ZK7JMzUmp4q62pneLcJM-16" target="ZK7JMzUmp4q62pneLcJM-23" edge="1">
          <mxGeometry relative="1" as="geometry" />
        </mxCell>
        <mxCell id="ZK7JMzUmp4q62pneLcJM-25" style="edgeStyle=orthogonalEdgeStyle;rounded=0;orthogonalLoop=1;jettySize=auto;html=1;entryX=1;entryY=0.5;entryDx=0;entryDy=0;" parent="zwWPfgIZnlJsHh6AUtGG-10" source="ZK7JMzUmp4q62pneLcJM-16" target="ZK7JMzUmp4q62pneLcJM-22" edge="1">
          <mxGeometry relative="1" as="geometry" />
        </mxCell>
        <mxCell id="ZK7JMzUmp4q62pneLcJM-27" style="edgeStyle=orthogonalEdgeStyle;rounded=0;orthogonalLoop=1;jettySize=auto;html=1;entryX=1;entryY=0.5;entryDx=0;entryDy=0;" parent="zwWPfgIZnlJsHh6AUtGG-10" source="ZK7JMzUmp4q62pneLcJM-16" target="ZK7JMzUmp4q62pneLcJM-26" edge="1">
          <mxGeometry relative="1" as="geometry" />
        </mxCell>
        <mxCell id="ZK7JMzUmp4q62pneLcJM-30" style="edgeStyle=orthogonalEdgeStyle;rounded=0;orthogonalLoop=1;jettySize=auto;html=1;entryX=1;entryY=0.5;entryDx=0;entryDy=0;" parent="zwWPfgIZnlJsHh6AUtGG-10" source="ZK7JMzUmp4q62pneLcJM-16" target="ZK7JMzUmp4q62pneLcJM-29" edge="1">
          <mxGeometry relative="1" as="geometry" />
        </mxCell>
        <mxCell id="2rmNUIiFIBOyhcDL24HG-31" style="edgeStyle=orthogonalEdgeStyle;rounded=0;orthogonalLoop=1;jettySize=auto;html=1;entryX=1;entryY=0.5;entryDx=0;entryDy=0;" parent="zwWPfgIZnlJsHh6AUtGG-10" source="ZK7JMzUmp4q62pneLcJM-16" target="2rmNUIiFIBOyhcDL24HG-30" edge="1">
          <mxGeometry relative="1" as="geometry">
            <Array as="points">
              <mxPoint x="170" y="120" />
              <mxPoint x="170" y="330" />
            </Array>
          </mxGeometry>
        </mxCell>
        <mxCell id="OHKGPh8YpkpOmDNxPamK-6" style="edgeStyle=orthogonalEdgeStyle;rounded=0;orthogonalLoop=1;jettySize=auto;html=1;entryX=1;entryY=0.5;entryDx=0;entryDy=0;" parent="zwWPfgIZnlJsHh6AUtGG-10" source="ZK7JMzUmp4q62pneLcJM-16" target="OHKGPh8YpkpOmDNxPamK-5" edge="1">
          <mxGeometry relative="1" as="geometry" />
        </mxCell>
        <mxCell id="ZK7JMzUmp4q62pneLcJM-16" value="Maestro" style="shape=ext;margin=3;double=1;whiteSpace=wrap;html=1;align=center;" parent="zwWPfgIZnlJsHh6AUtGG-10" vertex="1">
          <mxGeometry x="230" y="90" width="100" height="60" as="geometry" />
        </mxCell>
        <mxCell id="ZK7JMzUmp4q62pneLcJM-22" value="Email" style="ellipse;whiteSpace=wrap;html=1;align=center;" parent="zwWPfgIZnlJsHh6AUtGG-10" vertex="1">
          <mxGeometry y="100" width="100" height="40" as="geometry" />
        </mxCell>
        <mxCell id="ZK7JMzUmp4q62pneLcJM-23" value="Foto" style="ellipse;whiteSpace=wrap;html=1;align=center;" parent="zwWPfgIZnlJsHh6AUtGG-10" vertex="1">
          <mxGeometry y="200" width="100" height="40" as="geometry" />
        </mxCell>
        <mxCell id="ZK7JMzUmp4q62pneLcJM-26" value="ContraseÃ±a" style="ellipse;whiteSpace=wrap;html=1;align=center;" parent="zwWPfgIZnlJsHh6AUtGG-10" vertex="1">
          <mxGeometry y="250" width="100" height="40" as="geometry" />
        </mxCell>
        <mxCell id="ZK7JMzUmp4q62pneLcJM-28" value="ID" style="ellipse;whiteSpace=wrap;html=1;align=center;dashed=1;" parent="zwWPfgIZnlJsHh6AUtGG-10" vertex="1">
          <mxGeometry width="100" height="40" as="geometry" />
        </mxCell>
        <mxCell id="ZK7JMzUmp4q62pneLcJM-29" value="Biografia" style="ellipse;whiteSpace=wrap;html=1;align=center;" parent="zwWPfgIZnlJsHh6AUtGG-10" vertex="1">
          <mxGeometry y="50" width="100" height="40" as="geometry" />
        </mxCell>
        <mxCell id="2rmNUIiFIBOyhcDL24HG-30" value="Cuenta Bancaria/Paypal" style="ellipse;whiteSpace=wrap;html=1;align=center;" parent="zwWPfgIZnlJsHh6AUtGG-10" vertex="1">
          <mxGeometry y="300" width="100" height="60" as="geometry" />
        </mxCell>
        <mxCell id="OHKGPh8YpkpOmDNxPamK-5" value="Curso" style="ellipse;shape=doubleEllipse;margin=3;whiteSpace=wrap;html=1;align=center;" parent="zwWPfgIZnlJsHh6AUtGG-10" vertex="1">
          <mxGeometry y="150" width="100" height="40" as="geometry" />
        </mxCell>
        <mxCell id="zwWPfgIZnlJsHh6AUtGG-42" value="Crea" style="rhombus;whiteSpace=wrap;html=1;" vertex="1" parent="zwWPfgIZnlJsHh6AUtGG-10">
          <mxGeometry x="240" y="310" width="80" height="80" as="geometry" />
        </mxCell>
        <mxCell id="zwWPfgIZnlJsHh6AUtGG-43" value="" style="edgeStyle=orthogonalEdgeStyle;rounded=0;orthogonalLoop=1;jettySize=auto;html=1;" edge="1" parent="zwWPfgIZnlJsHh6AUtGG-10" source="ZK7JMzUmp4q62pneLcJM-16" target="zwWPfgIZnlJsHh6AUtGG-42">
          <mxGeometry relative="1" as="geometry" />
        </mxCell>
        <mxCell id="zwWPfgIZnlJsHh6AUtGG-11" value="" style="group" vertex="1" connectable="0" parent="1">
          <mxGeometry x="50" y="630" width="320" height="330" as="geometry" />
        </mxCell>
        <mxCell id="ZK7JMzUmp4q62pneLcJM-58" style="edgeStyle=orthogonalEdgeStyle;rounded=0;orthogonalLoop=1;jettySize=auto;html=1;entryX=1;entryY=0.5;entryDx=0;entryDy=0;exitX=0;exitY=0.5;exitDx=0;exitDy=0;" parent="zwWPfgIZnlJsHh6AUtGG-11" source="zwWPfgIZnlJsHh6AUtGG-2" target="ZK7JMzUmp4q62pneLcJM-56" edge="1">
          <mxGeometry relative="1" as="geometry">
            <mxPoint x="220" y="35" as="sourcePoint" />
          </mxGeometry>
        </mxCell>
        <mxCell id="ZK7JMzUmp4q62pneLcJM-65" style="edgeStyle=orthogonalEdgeStyle;rounded=0;orthogonalLoop=1;jettySize=auto;html=1;entryX=1;entryY=0.5;entryDx=0;entryDy=0;exitX=0;exitY=0.5;exitDx=0;exitDy=0;" parent="zwWPfgIZnlJsHh6AUtGG-11" source="zwWPfgIZnlJsHh6AUtGG-2" target="ZK7JMzUmp4q62pneLcJM-59" edge="1">
          <mxGeometry relative="1" as="geometry">
            <mxPoint x="220" y="35" as="sourcePoint" />
          </mxGeometry>
        </mxCell>
        <mxCell id="ZK7JMzUmp4q62pneLcJM-66" style="edgeStyle=orthogonalEdgeStyle;rounded=0;orthogonalLoop=1;jettySize=auto;html=1;entryX=1;entryY=0.5;entryDx=0;entryDy=0;exitX=0;exitY=0.5;exitDx=0;exitDy=0;" parent="zwWPfgIZnlJsHh6AUtGG-11" source="zwWPfgIZnlJsHh6AUtGG-2" target="ZK7JMzUmp4q62pneLcJM-63" edge="1">
          <mxGeometry relative="1" as="geometry">
            <mxPoint x="220" y="35" as="sourcePoint" />
          </mxGeometry>
        </mxCell>
        <mxCell id="8wpLspuHpNvW9Cj1d1qx-42" style="edgeStyle=orthogonalEdgeStyle;rounded=0;orthogonalLoop=1;jettySize=auto;html=1;entryX=1;entryY=0.5;entryDx=0;entryDy=0;exitX=0;exitY=0.5;exitDx=0;exitDy=0;" parent="zwWPfgIZnlJsHh6AUtGG-11" source="zwWPfgIZnlJsHh6AUtGG-2" target="8wpLspuHpNvW9Cj1d1qx-41" edge="1">
          <mxGeometry relative="1" as="geometry">
            <mxPoint x="220" y="35" as="sourcePoint" />
          </mxGeometry>
        </mxCell>
        <mxCell id="6L2IyVGzCVT2GHUQDgTi-11" style="edgeStyle=orthogonalEdgeStyle;rounded=0;orthogonalLoop=1;jettySize=auto;html=1;entryX=1;entryY=0.5;entryDx=0;entryDy=0;exitX=0.014;exitY=0.489;exitDx=0;exitDy=0;exitPerimeter=0;" parent="zwWPfgIZnlJsHh6AUtGG-11" source="zwWPfgIZnlJsHh6AUtGG-2" target="6L2IyVGzCVT2GHUQDgTi-10" edge="1">
          <mxGeometry relative="1" as="geometry">
            <mxPoint x="220" y="35" as="sourcePoint" />
          </mxGeometry>
        </mxCell>
        <mxCell id="ZK7JMzUmp4q62pneLcJM-56" value="Precio" style="ellipse;whiteSpace=wrap;html=1;align=center;" parent="zwWPfgIZnlJsHh6AUtGG-11" vertex="1">
          <mxGeometry y="190" width="100" height="40" as="geometry" />
        </mxCell>
        <mxCell id="ZK7JMzUmp4q62pneLcJM-59" value="Niveles" style="ellipse;whiteSpace=wrap;html=1;align=center;" parent="zwWPfgIZnlJsHh6AUtGG-11" vertex="1">
          <mxGeometry y="140" width="100" height="40" as="geometry" />
        </mxCell>
        <mxCell id="ZK7JMzUmp4q62pneLcJM-60" value="Maestro" style="ellipse;shape=doubleEllipse;margin=3;whiteSpace=wrap;html=1;align=center;" parent="zwWPfgIZnlJsHh6AUtGG-11" vertex="1">
          <mxGeometry y="50" width="100" height="40" as="geometry" />
        </mxCell>
        <mxCell id="ZK7JMzUmp4q62pneLcJM-63" value="ID" style="ellipse;whiteSpace=wrap;html=1;align=center;dashed=1;" parent="zwWPfgIZnlJsHh6AUtGG-11" vertex="1">
          <mxGeometry width="100" height="40" as="geometry" />
        </mxCell>
        <mxCell id="8wpLspuHpNvW9Cj1d1qx-16" value="Calidad" style="ellipse;whiteSpace=wrap;html=1;align=center;" parent="zwWPfgIZnlJsHh6AUtGG-11" vertex="1">
          <mxGeometry y="240" width="100" height="40" as="geometry" />
        </mxCell>
        <mxCell id="8wpLspuHpNvW9Cj1d1qx-41" value="Categoria" style="ellipse;shape=doubleEllipse;margin=3;whiteSpace=wrap;html=1;align=center;" parent="zwWPfgIZnlJsHh6AUtGG-11" vertex="1">
          <mxGeometry y="90" width="100" height="40" as="geometry" />
        </mxCell>
        <mxCell id="6L2IyVGzCVT2GHUQDgTi-10" value="Contenido" style="ellipse;whiteSpace=wrap;html=1;align=center;" parent="zwWPfgIZnlJsHh6AUtGG-11" vertex="1">
          <mxGeometry y="290" width="100" height="40" as="geometry" />
        </mxCell>
        <mxCell id="zwWPfgIZnlJsHh6AUtGG-2" value="Curso" style="rounded=1;arcSize=10;whiteSpace=wrap;html=1;align=center;" vertex="1" parent="zwWPfgIZnlJsHh6AUtGG-11">
          <mxGeometry x="220" width="100" height="60" as="geometry" />
        </mxCell>
        <mxCell id="zwWPfgIZnlJsHh6AUtGG-93" style="edgeStyle=orthogonalEdgeStyle;rounded=0;orthogonalLoop=1;jettySize=auto;html=1;entryX=1;entryY=0.5;entryDx=0;entryDy=0;exitX=0;exitY=0;exitDx=0;exitDy=0;" edge="1" parent="zwWPfgIZnlJsHh6AUtGG-11" target="zwWPfgIZnlJsHh6AUtGG-68">
          <mxGeometry relative="1" as="geometry">
            <mxPoint x="230" as="sourcePoint" />
            <mxPoint x="-260" y="-10" as="targetPoint" />
            <Array as="points">
              <mxPoint x="230" y="-40" />
              <mxPoint x="-15" y="-40" />
              <mxPoint x="-15" y="-10" />
            </Array>
          </mxGeometry>
        </mxCell>
        <mxCell id="zwWPfgIZnlJsHh6AUtGG-12" value="" style="group" vertex="1" connectable="0" parent="1">
          <mxGeometry x="900" y="630" width="250" height="190" as="geometry" />
        </mxCell>
        <mxCell id="8wpLspuHpNvW9Cj1d1qx-46" value="Texto" style="ellipse;whiteSpace=wrap;html=1;align=center;" parent="zwWPfgIZnlJsHh6AUtGG-12" vertex="1">
          <mxGeometry x="150" y="100" width="100" height="40" as="geometry" />
        </mxCell>
        <mxCell id="8wpLspuHpNvW9Cj1d1qx-49" value="Alumno" style="ellipse;shape=doubleEllipse;margin=3;whiteSpace=wrap;html=1;align=center;" parent="zwWPfgIZnlJsHh6AUtGG-12" vertex="1">
          <mxGeometry x="150" y="50" width="100" height="40" as="geometry" />
        </mxCell>
        <mxCell id="8wpLspuHpNvW9Cj1d1qx-51" value="ID" style="ellipse;whiteSpace=wrap;html=1;align=center;dashed=1;" parent="zwWPfgIZnlJsHh6AUtGG-12" vertex="1">
          <mxGeometry x="150" width="100" height="40" as="geometry" />
        </mxCell>
        <mxCell id="6L2IyVGzCVT2GHUQDgTi-8" value="Curso" style="ellipse;shape=doubleEllipse;margin=3;whiteSpace=wrap;html=1;align=center;" parent="zwWPfgIZnlJsHh6AUtGG-12" vertex="1">
          <mxGeometry x="150" y="150" width="100" height="40" as="geometry" />
        </mxCell>
        <mxCell id="zwWPfgIZnlJsHh6AUtGG-4" style="edgeStyle=orthogonalEdgeStyle;rounded=0;orthogonalLoop=1;jettySize=auto;html=1;entryX=0;entryY=0.5;entryDx=0;entryDy=0;" edge="1" parent="zwWPfgIZnlJsHh6AUtGG-12" source="zwWPfgIZnlJsHh6AUtGG-3" target="8wpLspuHpNvW9Cj1d1qx-51">
          <mxGeometry relative="1" as="geometry" />
        </mxCell>
        <mxCell id="zwWPfgIZnlJsHh6AUtGG-5" style="edgeStyle=orthogonalEdgeStyle;rounded=0;orthogonalLoop=1;jettySize=auto;html=1;entryX=0;entryY=0.5;entryDx=0;entryDy=0;" edge="1" parent="zwWPfgIZnlJsHh6AUtGG-12" source="zwWPfgIZnlJsHh6AUtGG-3" target="8wpLspuHpNvW9Cj1d1qx-49">
          <mxGeometry relative="1" as="geometry" />
        </mxCell>
        <mxCell id="zwWPfgIZnlJsHh6AUtGG-6" style="edgeStyle=orthogonalEdgeStyle;rounded=0;orthogonalLoop=1;jettySize=auto;html=1;entryX=0;entryY=0.5;entryDx=0;entryDy=0;" edge="1" parent="zwWPfgIZnlJsHh6AUtGG-12" source="zwWPfgIZnlJsHh6AUtGG-3" target="8wpLspuHpNvW9Cj1d1qx-46">
          <mxGeometry relative="1" as="geometry" />
        </mxCell>
        <mxCell id="zwWPfgIZnlJsHh6AUtGG-7" style="edgeStyle=orthogonalEdgeStyle;rounded=0;orthogonalLoop=1;jettySize=auto;html=1;entryX=0;entryY=0.5;entryDx=0;entryDy=0;" edge="1" parent="zwWPfgIZnlJsHh6AUtGG-12" source="zwWPfgIZnlJsHh6AUtGG-3" target="6L2IyVGzCVT2GHUQDgTi-8">
          <mxGeometry relative="1" as="geometry" />
        </mxCell>
        <mxCell id="zwWPfgIZnlJsHh6AUtGG-3" value="Comentario" style="rounded=1;arcSize=10;whiteSpace=wrap;html=1;align=center;" vertex="1" parent="zwWPfgIZnlJsHh6AUtGG-12">
          <mxGeometry y="30" width="100" height="60" as="geometry" />
        </mxCell>
        <mxCell id="zwWPfgIZnlJsHh6AUtGG-17" value="" style="group" vertex="1" connectable="0" parent="1">
          <mxGeometry x="900" y="30" width="250" height="440" as="geometry" />
        </mxCell>
        <mxCell id="ZK7JMzUmp4q62pneLcJM-34" style="edgeStyle=orthogonalEdgeStyle;rounded=0;orthogonalLoop=1;jettySize=auto;html=1;entryX=0;entryY=0.5;entryDx=0;entryDy=0;" parent="zwWPfgIZnlJsHh6AUtGG-17" source="ZK7JMzUmp4q62pneLcJM-32" target="ZK7JMzUmp4q62pneLcJM-33" edge="1">
          <mxGeometry relative="1" as="geometry" />
        </mxCell>
        <mxCell id="ZK7JMzUmp4q62pneLcJM-47" style="edgeStyle=orthogonalEdgeStyle;rounded=0;orthogonalLoop=1;jettySize=auto;html=1;entryX=0;entryY=0.5;entryDx=0;entryDy=0;" parent="zwWPfgIZnlJsHh6AUtGG-17" source="ZK7JMzUmp4q62pneLcJM-32" target="ZK7JMzUmp4q62pneLcJM-42" edge="1">
          <mxGeometry relative="1" as="geometry" />
        </mxCell>
        <mxCell id="ZK7JMzUmp4q62pneLcJM-48" style="edgeStyle=orthogonalEdgeStyle;rounded=0;orthogonalLoop=1;jettySize=auto;html=1;entryX=0;entryY=0.5;entryDx=0;entryDy=0;" parent="zwWPfgIZnlJsHh6AUtGG-17" source="ZK7JMzUmp4q62pneLcJM-32" target="ZK7JMzUmp4q62pneLcJM-44" edge="1">
          <mxGeometry relative="1" as="geometry" />
        </mxCell>
        <mxCell id="ZK7JMzUmp4q62pneLcJM-49" style="edgeStyle=orthogonalEdgeStyle;rounded=0;orthogonalLoop=1;jettySize=auto;html=1;entryX=0;entryY=0.5;entryDx=0;entryDy=0;" parent="zwWPfgIZnlJsHh6AUtGG-17" source="ZK7JMzUmp4q62pneLcJM-32" target="ZK7JMzUmp4q62pneLcJM-43" edge="1">
          <mxGeometry relative="1" as="geometry" />
        </mxCell>
        <mxCell id="ZK7JMzUmp4q62pneLcJM-51" style="edgeStyle=orthogonalEdgeStyle;rounded=0;orthogonalLoop=1;jettySize=auto;html=1;entryX=0;entryY=0.5;entryDx=0;entryDy=0;" parent="zwWPfgIZnlJsHh6AUtGG-17" source="ZK7JMzUmp4q62pneLcJM-32" target="ZK7JMzUmp4q62pneLcJM-50" edge="1">
          <mxGeometry relative="1" as="geometry" />
        </mxCell>
        <mxCell id="ZK7JMzUmp4q62pneLcJM-53" style="edgeStyle=orthogonalEdgeStyle;rounded=0;orthogonalLoop=1;jettySize=auto;html=1;entryX=0;entryY=0.5;entryDx=0;entryDy=0;" parent="zwWPfgIZnlJsHh6AUtGG-17" source="ZK7JMzUmp4q62pneLcJM-32" edge="1">
          <mxGeometry relative="1" as="geometry">
            <mxPoint x="150" y="282.8571428571429" as="targetPoint" />
            <Array as="points">
              <mxPoint x="125" y="104.76190476190477" />
              <mxPoint x="125" y="282.8571428571429" />
            </Array>
          </mxGeometry>
        </mxCell>
        <mxCell id="OHKGPh8YpkpOmDNxPamK-10" style="edgeStyle=orthogonalEdgeStyle;rounded=0;orthogonalLoop=1;jettySize=auto;html=1;entryX=0;entryY=0.5;entryDx=0;entryDy=0;" parent="zwWPfgIZnlJsHh6AUtGG-17" source="ZK7JMzUmp4q62pneLcJM-32" target="OHKGPh8YpkpOmDNxPamK-8" edge="1">
          <mxGeometry relative="1" as="geometry" />
        </mxCell>
        <mxCell id="OHKGPh8YpkpOmDNxPamK-11" style="edgeStyle=orthogonalEdgeStyle;rounded=0;orthogonalLoop=1;jettySize=auto;html=1;entryX=0;entryY=0.5;entryDx=0;entryDy=0;" parent="zwWPfgIZnlJsHh6AUtGG-17" source="ZK7JMzUmp4q62pneLcJM-32" target="OHKGPh8YpkpOmDNxPamK-9" edge="1">
          <mxGeometry relative="1" as="geometry" />
        </mxCell>
        <mxCell id="ZK7JMzUmp4q62pneLcJM-32" value="Alumno" style="shape=ext;margin=3;double=1;whiteSpace=wrap;html=1;align=center;" parent="zwWPfgIZnlJsHh6AUtGG-17" vertex="1">
          <mxGeometry y="73.33333333333334" width="100" height="62.85714285714286" as="geometry" />
        </mxCell>
        <mxCell id="ZK7JMzUmp4q62pneLcJM-33" value="ID" style="ellipse;whiteSpace=wrap;html=1;align=center;dashed=1;" parent="zwWPfgIZnlJsHh6AUtGG-17" vertex="1">
          <mxGeometry x="150" width="100" height="41.904761904761905" as="geometry" />
        </mxCell>
        <mxCell id="ZK7JMzUmp4q62pneLcJM-42" value="Email" style="ellipse;whiteSpace=wrap;html=1;align=center;" parent="zwWPfgIZnlJsHh6AUtGG-17" vertex="1">
          <mxGeometry x="150" y="52.38095238095239" width="100" height="41.904761904761905" as="geometry" />
        </mxCell>
        <mxCell id="ZK7JMzUmp4q62pneLcJM-43" value="Foto" style="ellipse;whiteSpace=wrap;html=1;align=center;" parent="zwWPfgIZnlJsHh6AUtGG-17" vertex="1">
          <mxGeometry x="150" y="157.14285714285714" width="100" height="41.904761904761905" as="geometry" />
        </mxCell>
        <mxCell id="ZK7JMzUmp4q62pneLcJM-44" value="ContraseÃ±a" style="ellipse;whiteSpace=wrap;html=1;align=center;" parent="zwWPfgIZnlJsHh6AUtGG-17" vertex="1">
          <mxGeometry x="150" y="104.76190476190477" width="100" height="41.904761904761905" as="geometry" />
        </mxCell>
        <mxCell id="ZK7JMzUmp4q62pneLcJM-50" value="Fecha de nacimiento" style="ellipse;whiteSpace=wrap;html=1;align=center;" parent="zwWPfgIZnlJsHh6AUtGG-17" vertex="1">
          <mxGeometry x="150" y="209.52380952380955" width="100" height="41.904761904761905" as="geometry" />
        </mxCell>
        <mxCell id="OHKGPh8YpkpOmDNxPamK-8" value="Fecha de creacion&lt;span style=&quot;color: rgba(0, 0, 0, 0); font-family: monospace; font-size: 0px; text-align: start; text-wrap: nowrap;&quot;&gt;%3CmxGraphModel%3E%3Croot%3E%3CmxCell%20id%3D%220%22%2F%3E%3CmxCell%20id%3D%221%22%20parent%3D%220%22%2F%3E%3CmxCell%20id%3D%222%22%20value%3D%22Aprobado%3F%3DSi%2Fno%22%20style%3D%22ellipse%3BwhiteSpace%3Dwrap%3Bhtml%3D1%3Balign%3Dcenter%3B%22%20vertex%3D%221%22%20parent%3D%221%22%3E%3CmxGeometry%20x%3D%22140%22%20y%3D%221000%22%20width%3D%22100%22%20height%3D%2240%22%20as%3D%22geometry%22%2F%3E%3C%2FmxCell%3E%3C%2Froot%3E%3C%2FmxGraphModel%3E&lt;/span&gt;" style="ellipse;whiteSpace=wrap;html=1;align=center;" parent="zwWPfgIZnlJsHh6AUtGG-17" vertex="1">
          <mxGeometry x="150" y="303.80952380952385" width="100" height="41.904761904761905" as="geometry" />
        </mxCell>
        <mxCell id="OHKGPh8YpkpOmDNxPamK-9" value="Fecha de actualizacion&lt;span style=&quot;color: rgba(0, 0, 0, 0); font-family: monospace; font-size: 0px; text-align: start; text-wrap: nowrap;&quot;&gt;%3CmxGraphModel%3E%3Croot%3E%3CmxCell%20id%3D%220%22%2F%3E%3CmxCell%20id%3D%221%22%20parent%3D%220%22%2F%3E%3CmxCell%20id%3D%222%22%20value%3D%22Aprobado%3F%3DSi%2Fno%22%20style%3D%22ellipse%3BwhiteSpace%3Dwrap%3Bhtml%3D1%3Balign%3Dcenter%3B%22%20vertex%3D%221%22%20parent%3D%221%22%3E%3CmxGeometry%20x%3D%22140%22%20y%3D%221000%22%20width%3D%22100%22%20height%3D%2240%22%20as%3D%22geometry%22%2F%3E%3C%2FmxCell%3E%3C%2Froot%3E%3C%2FmxGraphModel%3&lt;/span&gt;" style="ellipse;whiteSpace=wrap;html=1;align=center;" parent="zwWPfgIZnlJsHh6AUtGG-17" vertex="1">
          <mxGeometry x="150" y="345.7142857142857" width="100" height="52.38095238095239" as="geometry" />
        </mxCell>
        <mxCell id="OHKGPh8YpkpOmDNxPamK-14" value="Metodos de pago" style="ellipse;shape=doubleEllipse;margin=3;whiteSpace=wrap;html=1;align=center;" parent="zwWPfgIZnlJsHh6AUtGG-17" vertex="1">
          <mxGeometry x="150" y="261.9047619047619" width="100" height="41.904761904761905" as="geometry" />
        </mxCell>
        <mxCell id="zwWPfgIZnlJsHh6AUtGG-16" style="edgeStyle=orthogonalEdgeStyle;rounded=0;orthogonalLoop=1;jettySize=auto;html=1;entryX=1;entryY=0.5;entryDx=0;entryDy=0;" edge="1" parent="zwWPfgIZnlJsHh6AUtGG-17" source="OHKGPh8YpkpOmDNxPamK-33" target="ZK7JMzUmp4q62pneLcJM-32">
          <mxGeometry relative="1" as="geometry" />
        </mxCell>
        <mxCell id="OHKGPh8YpkpOmDNxPamK-33" value="Estatus" style="ellipse;whiteSpace=wrap;html=1;align=center;" parent="zwWPfgIZnlJsHh6AUtGG-17" vertex="1">
          <mxGeometry x="150" y="413.80952380952385" width="100" height="41.904761904761905" as="geometry" />
        </mxCell>
        <mxCell id="zwWPfgIZnlJsHh6AUtGG-35" value="" style="group" vertex="1" connectable="0" parent="1">
          <mxGeometry x="570" y="-400" width="280" height="480" as="geometry" />
        </mxCell>
        <mxCell id="2rmNUIiFIBOyhcDL24HG-7" value="ID" style="ellipse;whiteSpace=wrap;html=1;align=center;dashed=1;rotation=0;" parent="zwWPfgIZnlJsHh6AUtGG-35" vertex="1">
          <mxGeometry x="180" width="100" height="40" as="geometry" />
        </mxCell>
        <mxCell id="2rmNUIiFIBOyhcDL24HG-12" value="Alumno" style="ellipse;shape=doubleEllipse;margin=3;whiteSpace=wrap;html=1;align=center;" parent="zwWPfgIZnlJsHh6AUtGG-35" vertex="1">
          <mxGeometry x="180" y="50" width="100" height="40" as="geometry" />
        </mxCell>
        <mxCell id="2rmNUIiFIBOyhcDL24HG-13" value="Profesor" style="ellipse;shape=doubleEllipse;margin=3;whiteSpace=wrap;html=1;align=center;" parent="zwWPfgIZnlJsHh6AUtGG-35" vertex="1">
          <mxGeometry x="180" y="95" width="100" height="40" as="geometry" />
        </mxCell>
        <mxCell id="2rmNUIiFIBOyhcDL24HG-14" value="Monto" style="ellipse;whiteSpace=wrap;html=1;align=center;rotation=0;" parent="zwWPfgIZnlJsHh6AUtGG-35" vertex="1">
          <mxGeometry x="180" y="140" width="100" height="40" as="geometry" />
        </mxCell>
        <mxCell id="zwWPfgIZnlJsHh6AUtGG-31" style="edgeStyle=orthogonalEdgeStyle;rounded=0;orthogonalLoop=1;jettySize=auto;html=1;entryX=0;entryY=0.5;entryDx=0;entryDy=0;" edge="1" parent="zwWPfgIZnlJsHh6AUtGG-35" source="zwWPfgIZnlJsHh6AUtGG-30" target="2rmNUIiFIBOyhcDL24HG-7">
          <mxGeometry relative="1" as="geometry" />
        </mxCell>
        <mxCell id="zwWPfgIZnlJsHh6AUtGG-32" style="edgeStyle=orthogonalEdgeStyle;rounded=0;orthogonalLoop=1;jettySize=auto;html=1;" edge="1" parent="zwWPfgIZnlJsHh6AUtGG-35" source="zwWPfgIZnlJsHh6AUtGG-30" target="2rmNUIiFIBOyhcDL24HG-12">
          <mxGeometry relative="1" as="geometry" />
        </mxCell>
        <mxCell id="zwWPfgIZnlJsHh6AUtGG-33" style="edgeStyle=orthogonalEdgeStyle;rounded=0;orthogonalLoop=1;jettySize=auto;html=1;entryX=0;entryY=0.5;entryDx=0;entryDy=0;" edge="1" parent="zwWPfgIZnlJsHh6AUtGG-35" source="zwWPfgIZnlJsHh6AUtGG-30" target="2rmNUIiFIBOyhcDL24HG-13">
          <mxGeometry relative="1" as="geometry" />
        </mxCell>
        <mxCell id="zwWPfgIZnlJsHh6AUtGG-34" style="edgeStyle=orthogonalEdgeStyle;rounded=0;orthogonalLoop=1;jettySize=auto;html=1;entryX=0;entryY=0.5;entryDx=0;entryDy=0;" edge="1" parent="zwWPfgIZnlJsHh6AUtGG-35" source="zwWPfgIZnlJsHh6AUtGG-30" target="2rmNUIiFIBOyhcDL24HG-14">
          <mxGeometry relative="1" as="geometry" />
        </mxCell>
        <mxCell id="zwWPfgIZnlJsHh6AUtGG-30" value="Transacccion&amp;nbsp;" style="rounded=1;arcSize=10;whiteSpace=wrap;html=1;align=center;" vertex="1" parent="zwWPfgIZnlJsHh6AUtGG-35">
          <mxGeometry y="75" width="100" height="65" as="geometry" />
        </mxCell>
        <mxCell id="zwWPfgIZnlJsHh6AUtGG-85" style="edgeStyle=orthogonalEdgeStyle;rounded=0;orthogonalLoop=1;jettySize=auto;html=1;entryX=0.5;entryY=1;entryDx=0;entryDy=0;" edge="1" parent="zwWPfgIZnlJsHh6AUtGG-35" source="zwWPfgIZnlJsHh6AUtGG-83" target="zwWPfgIZnlJsHh6AUtGG-30">
          <mxGeometry relative="1" as="geometry" />
        </mxCell>
        <mxCell id="zwWPfgIZnlJsHh6AUtGG-83" value="Realiza" style="rhombus;whiteSpace=wrap;html=1;" vertex="1" parent="zwWPfgIZnlJsHh6AUtGG-35">
          <mxGeometry x="10" y="230.0047619047619" width="80" height="80" as="geometry" />
        </mxCell>
        <mxCell id="zwWPfgIZnlJsHh6AUtGG-132" value="N,N" style="text;html=1;align=center;verticalAlign=middle;whiteSpace=wrap;rounded=0;rotation=90;" vertex="1" parent="zwWPfgIZnlJsHh6AUtGG-35">
          <mxGeometry x="90" y="255" width="60" height="30" as="geometry" />
        </mxCell>
        <mxCell id="8wpLspuHpNvW9Cj1d1qx-12" style="edgeStyle=orthogonalEdgeStyle;rounded=0;orthogonalLoop=1;jettySize=auto;html=1;entryX=0;entryY=0.5;entryDx=0;entryDy=0;" parent="1" source="8wpLspuHpNvW9Cj1d1qx-1" target="8wpLspuHpNvW9Cj1d1qx-4" edge="1">
          <mxGeometry relative="1" as="geometry" />
        </mxCell>
        <mxCell id="8wpLspuHpNvW9Cj1d1qx-13" style="edgeStyle=orthogonalEdgeStyle;rounded=0;orthogonalLoop=1;jettySize=auto;html=1;entryX=0;entryY=0.5;entryDx=0;entryDy=0;" parent="1" source="8wpLspuHpNvW9Cj1d1qx-1" target="8wpLspuHpNvW9Cj1d1qx-6" edge="1">
          <mxGeometry relative="1" as="geometry" />
        </mxCell>
        <mxCell id="8wpLspuHpNvW9Cj1d1qx-14" style="edgeStyle=orthogonalEdgeStyle;rounded=0;orthogonalLoop=1;jettySize=auto;html=1;entryX=0;entryY=0.5;entryDx=0;entryDy=0;" parent="1" source="8wpLspuHpNvW9Cj1d1qx-1" target="8wpLspuHpNvW9Cj1d1qx-8" edge="1">
          <mxGeometry relative="1" as="geometry" />
        </mxCell>
        <mxCell id="8wpLspuHpNvW9Cj1d1qx-28" style="edgeStyle=orthogonalEdgeStyle;rounded=0;orthogonalLoop=1;jettySize=auto;html=1;entryX=0;entryY=0.5;entryDx=0;entryDy=0;" parent="1" source="8wpLspuHpNvW9Cj1d1qx-1" target="8wpLspuHpNvW9Cj1d1qx-9" edge="1">
          <mxGeometry relative="1" as="geometry" />
        </mxCell>
        <mxCell id="8wpLspuHpNvW9Cj1d1qx-1" value="Admin" style="shape=ext;margin=3;double=1;whiteSpace=wrap;html=1;align=center;" parent="1" vertex="1">
          <mxGeometry x="-660" y="140" width="100" height="60" as="geometry" />
        </mxCell>
        <mxCell id="8wpLspuHpNvW9Cj1d1qx-4" value="ID" style="ellipse;whiteSpace=wrap;html=1;align=center;dashed=1;rotation=0;" parent="1" vertex="1">
          <mxGeometry x="-480" y="90" width="100" height="40" as="geometry" />
        </mxCell>
        <mxCell id="8wpLspuHpNvW9Cj1d1qx-6" value="Email" style="ellipse;whiteSpace=wrap;html=1;align=center;rotation=0;" parent="1" vertex="1">
          <mxGeometry x="-480" y="140" width="100" height="40" as="geometry" />
        </mxCell>
        <mxCell id="8wpLspuHpNvW9Cj1d1qx-8" value="ContraseÃ±a" style="ellipse;whiteSpace=wrap;html=1;align=center;rotation=0;" parent="1" vertex="1">
          <mxGeometry x="-480" y="190" width="100" height="40" as="geometry" />
        </mxCell>
        <mxCell id="8wpLspuHpNvW9Cj1d1qx-9" value="Foto" style="ellipse;whiteSpace=wrap;html=1;align=center;rotation=0;" parent="1" vertex="1">
          <mxGeometry x="-480" y="240" width="100" height="40" as="geometry" />
        </mxCell>
        <mxCell id="zwWPfgIZnlJsHh6AUtGG-38" value="Crea" style="rhombus;whiteSpace=wrap;html=1;" vertex="1" parent="1">
          <mxGeometry x="-650" y="330" width="80" height="80" as="geometry" />
        </mxCell>
        <mxCell id="zwWPfgIZnlJsHh6AUtGG-39" value="" style="edgeStyle=orthogonalEdgeStyle;rounded=0;orthogonalLoop=1;jettySize=auto;html=1;" edge="1" parent="1" source="8wpLspuHpNvW9Cj1d1qx-1" target="zwWPfgIZnlJsHh6AUtGG-38">
          <mxGeometry relative="1" as="geometry" />
        </mxCell>
        <mxCell id="zwWPfgIZnlJsHh6AUtGG-29" value="" style="group" vertex="1" connectable="0" parent="1">
          <mxGeometry x="-310" y="270" width="390" height="190" as="geometry" />
        </mxCell>
        <mxCell id="8wpLspuHpNvW9Cj1d1qx-38" value="ID" style="ellipse;whiteSpace=wrap;html=1;align=center;dashed=1;rotation=0;" parent="zwWPfgIZnlJsHh6AUtGG-29" vertex="1">
          <mxGeometry x="160" width="100" height="40" as="geometry" />
        </mxCell>
        <mxCell id="8wpLspuHpNvW9Cj1d1qx-39" value="Nombre de la categoria" style="ellipse;whiteSpace=wrap;html=1;align=center;rotation=0;" parent="zwWPfgIZnlJsHh6AUtGG-29" vertex="1">
          <mxGeometry x="160" y="100" width="100" height="40" as="geometry" />
        </mxCell>
        <mxCell id="6L2IyVGzCVT2GHUQDgTi-2" value="Actividad" style="ellipse;whiteSpace=wrap;html=1;align=center;rotation=0;" parent="zwWPfgIZnlJsHh6AUtGG-29" vertex="1">
          <mxGeometry x="160" y="50" width="100" height="40" as="geometry" />
        </mxCell>
        <mxCell id="6L2IyVGzCVT2GHUQDgTi-3" value="Admin" style="ellipse;shape=doubleEllipse;margin=3;whiteSpace=wrap;html=1;align=center;" parent="zwWPfgIZnlJsHh6AUtGG-29" vertex="1">
          <mxGeometry x="160" y="150" width="100" height="40" as="geometry" />
        </mxCell>
        <mxCell id="zwWPfgIZnlJsHh6AUtGG-25" style="edgeStyle=orthogonalEdgeStyle;rounded=0;orthogonalLoop=1;jettySize=auto;html=1;entryX=0;entryY=0.5;entryDx=0;entryDy=0;" edge="1" parent="zwWPfgIZnlJsHh6AUtGG-29" source="zwWPfgIZnlJsHh6AUtGG-24" target="8wpLspuHpNvW9Cj1d1qx-38">
          <mxGeometry relative="1" as="geometry" />
        </mxCell>
        <mxCell id="zwWPfgIZnlJsHh6AUtGG-26" style="edgeStyle=orthogonalEdgeStyle;rounded=0;orthogonalLoop=1;jettySize=auto;html=1;entryX=0;entryY=0.5;entryDx=0;entryDy=0;" edge="1" parent="zwWPfgIZnlJsHh6AUtGG-29" source="zwWPfgIZnlJsHh6AUtGG-24" target="6L2IyVGzCVT2GHUQDgTi-2">
          <mxGeometry relative="1" as="geometry" />
        </mxCell>
        <mxCell id="zwWPfgIZnlJsHh6AUtGG-27" style="edgeStyle=orthogonalEdgeStyle;rounded=0;orthogonalLoop=1;jettySize=auto;html=1;entryX=0;entryY=0.5;entryDx=0;entryDy=0;" edge="1" parent="zwWPfgIZnlJsHh6AUtGG-29" source="zwWPfgIZnlJsHh6AUtGG-24" target="8wpLspuHpNvW9Cj1d1qx-39">
          <mxGeometry relative="1" as="geometry" />
        </mxCell>
        <mxCell id="zwWPfgIZnlJsHh6AUtGG-28" style="edgeStyle=orthogonalEdgeStyle;rounded=0;orthogonalLoop=1;jettySize=auto;html=1;entryX=0;entryY=0.5;entryDx=0;entryDy=0;" edge="1" parent="zwWPfgIZnlJsHh6AUtGG-29" source="zwWPfgIZnlJsHh6AUtGG-24" target="6L2IyVGzCVT2GHUQDgTi-3">
          <mxGeometry relative="1" as="geometry" />
        </mxCell>
        <mxCell id="zwWPfgIZnlJsHh6AUtGG-24" value="Categoria" style="rounded=1;arcSize=10;whiteSpace=wrap;html=1;align=center;" vertex="1" parent="zwWPfgIZnlJsHh6AUtGG-29">
          <mxGeometry y="70" width="100" height="60" as="geometry" />
        </mxCell>
        <mxCell id="zwWPfgIZnlJsHh6AUtGG-40" style="edgeStyle=orthogonalEdgeStyle;rounded=0;orthogonalLoop=1;jettySize=auto;html=1;entryX=0;entryY=0.5;entryDx=0;entryDy=0;" edge="1" parent="1" source="zwWPfgIZnlJsHh6AUtGG-38" target="zwWPfgIZnlJsHh6AUtGG-24">
          <mxGeometry relative="1" as="geometry" />
        </mxCell>
        <mxCell id="zwWPfgIZnlJsHh6AUtGG-44" style="edgeStyle=orthogonalEdgeStyle;rounded=0;orthogonalLoop=1;jettySize=auto;html=1;entryX=0.5;entryY=0;entryDx=0;entryDy=0;" edge="1" parent="1" source="zwWPfgIZnlJsHh6AUtGG-42" target="zwWPfgIZnlJsHh6AUtGG-2">
          <mxGeometry relative="1" as="geometry" />
        </mxCell>
        <mxCell id="zwWPfgIZnlJsHh6AUtGG-45" value="Realiza" style="rhombus;whiteSpace=wrap;html=1;" vertex="1" parent="1">
          <mxGeometry x="910" y="500" width="80" height="80" as="geometry" />
        </mxCell>
        <mxCell id="zwWPfgIZnlJsHh6AUtGG-46" value="" style="edgeStyle=orthogonalEdgeStyle;rounded=0;orthogonalLoop=1;jettySize=auto;html=1;" edge="1" parent="1" source="ZK7JMzUmp4q62pneLcJM-32" target="zwWPfgIZnlJsHh6AUtGG-45">
          <mxGeometry relative="1" as="geometry" />
        </mxCell>
        <mxCell id="zwWPfgIZnlJsHh6AUtGG-54" value="" style="group" vertex="1" connectable="0" parent="1">
          <mxGeometry x="1525" y="770" width="100" height="240" as="geometry" />
        </mxCell>
        <mxCell id="8wpLspuHpNvW9Cj1d1qx-20" value="ID" style="ellipse;whiteSpace=wrap;html=1;align=center;dashed=1;container=0;" parent="zwWPfgIZnlJsHh6AUtGG-54" vertex="1">
          <mxGeometry width="100" height="40" as="geometry" />
        </mxCell>
        <mxCell id="2rmNUIiFIBOyhcDL24HG-21" value="Curso" style="ellipse;shape=doubleEllipse;margin=3;whiteSpace=wrap;html=1;align=center;container=0;" parent="zwWPfgIZnlJsHh6AUtGG-54" vertex="1">
          <mxGeometry y="100" width="100" height="40" as="geometry" />
        </mxCell>
        <mxCell id="2rmNUIiFIBOyhcDL24HG-22" value="Alumno" style="ellipse;shape=doubleEllipse;margin=3;whiteSpace=wrap;html=1;align=center;container=0;" parent="zwWPfgIZnlJsHh6AUtGG-54" vertex="1">
          <mxGeometry y="50" width="100" height="40" as="geometry" />
        </mxCell>
        <mxCell id="2rmNUIiFIBOyhcDL24HG-25" value="Aprobado?=Si/no" style="ellipse;whiteSpace=wrap;html=1;align=center;container=0;" parent="zwWPfgIZnlJsHh6AUtGG-54" vertex="1">
          <mxGeometry y="150" width="100" height="40" as="geometry" />
        </mxCell>
        <mxCell id="OHKGPh8YpkpOmDNxPamK-1" value="Calificacion" style="ellipse;whiteSpace=wrap;html=1;align=center;container=0;" parent="zwWPfgIZnlJsHh6AUtGG-54" vertex="1">
          <mxGeometry y="200" width="100" height="40" as="geometry" />
        </mxCell>
        <mxCell id="zwWPfgIZnlJsHh6AUtGG-48" style="edgeStyle=orthogonalEdgeStyle;rounded=0;orthogonalLoop=1;jettySize=auto;html=1;entryX=0;entryY=0.5;entryDx=0;entryDy=0;" edge="1" parent="1" source="zwWPfgIZnlJsHh6AUtGG-9" target="8wpLspuHpNvW9Cj1d1qx-20">
          <mxGeometry relative="1" as="geometry" />
        </mxCell>
        <mxCell id="zwWPfgIZnlJsHh6AUtGG-49" style="edgeStyle=orthogonalEdgeStyle;rounded=0;orthogonalLoop=1;jettySize=auto;html=1;entryX=0;entryY=0.5;entryDx=0;entryDy=0;" edge="1" parent="1" source="zwWPfgIZnlJsHh6AUtGG-9" target="2rmNUIiFIBOyhcDL24HG-22">
          <mxGeometry relative="1" as="geometry" />
        </mxCell>
        <mxCell id="zwWPfgIZnlJsHh6AUtGG-50" style="edgeStyle=orthogonalEdgeStyle;rounded=0;orthogonalLoop=1;jettySize=auto;html=1;entryX=0;entryY=0.5;entryDx=0;entryDy=0;" edge="1" parent="1" source="zwWPfgIZnlJsHh6AUtGG-9" target="2rmNUIiFIBOyhcDL24HG-21">
          <mxGeometry relative="1" as="geometry" />
        </mxCell>
        <mxCell id="zwWPfgIZnlJsHh6AUtGG-51" style="edgeStyle=orthogonalEdgeStyle;rounded=0;orthogonalLoop=1;jettySize=auto;html=1;entryX=0;entryY=0.5;entryDx=0;entryDy=0;" edge="1" parent="1" source="zwWPfgIZnlJsHh6AUtGG-9" target="2rmNUIiFIBOyhcDL24HG-25">
          <mxGeometry relative="1" as="geometry" />
        </mxCell>
        <mxCell id="zwWPfgIZnlJsHh6AUtGG-52" style="edgeStyle=orthogonalEdgeStyle;rounded=0;orthogonalLoop=1;jettySize=auto;html=1;entryX=0;entryY=0.5;entryDx=0;entryDy=0;" edge="1" parent="1" source="zwWPfgIZnlJsHh6AUtGG-9" target="OHKGPh8YpkpOmDNxPamK-1">
          <mxGeometry relative="1" as="geometry" />
        </mxCell>
        <mxCell id="zwWPfgIZnlJsHh6AUtGG-91" style="edgeStyle=orthogonalEdgeStyle;rounded=0;orthogonalLoop=1;jettySize=auto;html=1;entryX=1;entryY=0.5;entryDx=0;entryDy=0;" edge="1" parent="1" source="zwWPfgIZnlJsHh6AUtGG-9" target="zwWPfgIZnlJsHh6AUtGG-64">
          <mxGeometry relative="1" as="geometry" />
        </mxCell>
        <mxCell id="zwWPfgIZnlJsHh6AUtGG-92" style="edgeStyle=orthogonalEdgeStyle;rounded=0;orthogonalLoop=1;jettySize=auto;html=1;entryX=0.5;entryY=1;entryDx=0;entryDy=0;" edge="1" parent="1" source="zwWPfgIZnlJsHh6AUtGG-9" target="zwWPfgIZnlJsHh6AUtGG-56">
          <mxGeometry relative="1" as="geometry" />
        </mxCell>
        <mxCell id="zwWPfgIZnlJsHh6AUtGG-9" value="Kardex" style="rounded=1;arcSize=10;whiteSpace=wrap;html=1;align=center;container=0;" vertex="1" parent="1">
          <mxGeometry x="1290" y="890" width="100" height="60" as="geometry" />
        </mxCell>
        <mxCell id="zwWPfgIZnlJsHh6AUtGG-56" value="Acredita" style="rhombus;whiteSpace=wrap;html=1;" vertex="1" parent="1">
          <mxGeometry x="1300" y="510" width="80" height="80" as="geometry" />
        </mxCell>
        <mxCell id="zwWPfgIZnlJsHh6AUtGG-59" style="edgeStyle=orthogonalEdgeStyle;rounded=0;orthogonalLoop=1;jettySize=auto;html=1;entryX=0.5;entryY=0;entryDx=0;entryDy=0;" edge="1" parent="1" source="ZK7JMzUmp4q62pneLcJM-32" target="zwWPfgIZnlJsHh6AUtGG-56">
          <mxGeometry relative="1" as="geometry">
            <Array as="points">
              <mxPoint x="990" />
              <mxPoint x="1340" />
            </Array>
          </mxGeometry>
        </mxCell>
        <mxCell id="zwWPfgIZnlJsHh6AUtGG-61" value="Adquiere" style="rhombus;whiteSpace=wrap;html=1;" vertex="1" parent="1">
          <mxGeometry x="630" y="94.76" width="80" height="80" as="geometry" />
        </mxCell>
        <mxCell id="zwWPfgIZnlJsHh6AUtGG-64" value="Agrega" style="rhombus;whiteSpace=wrap;html=1;rounded=1;arcSize=10;" vertex="1" parent="1">
          <mxGeometry x="770" y="880" width="80" height="80" as="geometry" />
        </mxCell>
        <mxCell id="zwWPfgIZnlJsHh6AUtGG-65" value="" style="edgeStyle=orthogonalEdgeStyle;rounded=0;orthogonalLoop=1;jettySize=auto;html=1;" edge="1" parent="1" source="zwWPfgIZnlJsHh6AUtGG-2" target="zwWPfgIZnlJsHh6AUtGG-64">
          <mxGeometry relative="1" as="geometry">
            <Array as="points">
              <mxPoint x="320" y="770" />
              <mxPoint x="810" y="770" />
            </Array>
          </mxGeometry>
        </mxCell>
        <mxCell id="zwWPfgIZnlJsHh6AUtGG-68" value="Asigna" style="rhombus;whiteSpace=wrap;html=1;rounded=1;arcSize=10;" vertex="1" parent="1">
          <mxGeometry x="-300" y="580" width="80" height="80" as="geometry" />
        </mxCell>
        <mxCell id="zwWPfgIZnlJsHh6AUtGG-69" value="" style="edgeStyle=orthogonalEdgeStyle;rounded=0;orthogonalLoop=1;jettySize=auto;html=1;" edge="1" parent="1" source="zwWPfgIZnlJsHh6AUtGG-24" target="zwWPfgIZnlJsHh6AUtGG-68">
          <mxGeometry relative="1" as="geometry" />
        </mxCell>
        <mxCell id="zwWPfgIZnlJsHh6AUtGG-72" style="edgeStyle=orthogonalEdgeStyle;rounded=0;orthogonalLoop=1;jettySize=auto;html=1;" edge="1" parent="1" source="zwWPfgIZnlJsHh6AUtGG-2">
          <mxGeometry relative="1" as="geometry">
            <mxPoint x="150" y="990" as="targetPoint" />
            <Array as="points">
              <mxPoint x="210" y="660" />
              <mxPoint x="210" y="990" />
            </Array>
          </mxGeometry>
        </mxCell>
        <mxCell id="zwWPfgIZnlJsHh6AUtGG-73" value="Comentarios" style="ellipse;shape=doubleEllipse;margin=3;whiteSpace=wrap;html=1;align=center;" vertex="1" parent="1">
          <mxGeometry x="50" y="970" width="100" height="40" as="geometry" />
        </mxCell>
        <mxCell id="zwWPfgIZnlJsHh6AUtGG-80" value="Recibe" style="rhombus;whiteSpace=wrap;html=1;" vertex="1" parent="1">
          <mxGeometry x="280" y="-332.5" width="80" height="80" as="geometry" />
        </mxCell>
        <mxCell id="zwWPfgIZnlJsHh6AUtGG-84" value="" style="edgeStyle=orthogonalEdgeStyle;rounded=0;orthogonalLoop=1;jettySize=auto;html=1;entryX=0.5;entryY=1;entryDx=0;entryDy=0;" edge="1" parent="1" source="ZK7JMzUmp4q62pneLcJM-32" target="zwWPfgIZnlJsHh6AUtGG-83">
          <mxGeometry relative="1" as="geometry">
            <Array as="points">
              <mxPoint x="920" />
              <mxPoint x="620" />
            </Array>
          </mxGeometry>
        </mxCell>
        <mxCell id="zwWPfgIZnlJsHh6AUtGG-87" style="edgeStyle=orthogonalEdgeStyle;rounded=0;orthogonalLoop=1;jettySize=auto;html=1;entryX=1;entryY=0.5;entryDx=0;entryDy=0;" edge="1" parent="1" source="zwWPfgIZnlJsHh6AUtGG-30" target="zwWPfgIZnlJsHh6AUtGG-80">
          <mxGeometry relative="1" as="geometry" />
        </mxCell>
        <mxCell id="zwWPfgIZnlJsHh6AUtGG-88" style="edgeStyle=orthogonalEdgeStyle;rounded=0;orthogonalLoop=1;jettySize=auto;html=1;entryX=0.5;entryY=1;entryDx=0;entryDy=0;" edge="1" parent="1" source="ZK7JMzUmp4q62pneLcJM-16" target="zwWPfgIZnlJsHh6AUtGG-80">
          <mxGeometry relative="1" as="geometry" />
        </mxCell>
        <mxCell id="zwWPfgIZnlJsHh6AUtGG-89" style="edgeStyle=orthogonalEdgeStyle;rounded=0;orthogonalLoop=1;jettySize=auto;html=1;entryX=1;entryY=0.5;entryDx=0;entryDy=0;" edge="1" parent="1" source="ZK7JMzUmp4q62pneLcJM-32" target="zwWPfgIZnlJsHh6AUtGG-61">
          <mxGeometry relative="1" as="geometry" />
        </mxCell>
        <mxCell id="zwWPfgIZnlJsHh6AUtGG-90" style="edgeStyle=orthogonalEdgeStyle;rounded=0;orthogonalLoop=1;jettySize=auto;html=1;entryX=0.5;entryY=1;entryDx=0;entryDy=0;" edge="1" parent="1" source="zwWPfgIZnlJsHh6AUtGG-3" target="zwWPfgIZnlJsHh6AUtGG-45">
          <mxGeometry relative="1" as="geometry" />
        </mxCell>
        <mxCell id="zwWPfgIZnlJsHh6AUtGG-96" value="Tiene&amp;nbsp;" style="rhombus;whiteSpace=wrap;html=1;rounded=1;arcSize=10;" vertex="1" parent="1">
          <mxGeometry x="670" y="620" width="80" height="80" as="geometry" />
        </mxCell>
        <mxCell id="zwWPfgIZnlJsHh6AUtGG-97" value="" style="edgeStyle=orthogonalEdgeStyle;rounded=0;orthogonalLoop=1;jettySize=auto;html=1;" edge="1" parent="1" source="zwWPfgIZnlJsHh6AUtGG-3" target="zwWPfgIZnlJsHh6AUtGG-96">
          <mxGeometry relative="1" as="geometry" />
        </mxCell>
        <mxCell id="zwWPfgIZnlJsHh6AUtGG-102" value="" style="group" vertex="1" connectable="0" parent="1">
          <mxGeometry y="-690" width="490" height="770" as="geometry" />
        </mxCell>
        <mxCell id="OHKGPh8YpkpOmDNxPamK-16" style="edgeStyle=orthogonalEdgeStyle;rounded=0;orthogonalLoop=1;jettySize=auto;html=1;" parent="zwWPfgIZnlJsHh6AUtGG-102" source="OHKGPh8YpkpOmDNxPamK-13" target="OHKGPh8YpkpOmDNxPamK-17" edge="1">
          <mxGeometry relative="1" as="geometry">
            <mxPoint x="150" y="30" as="targetPoint" />
          </mxGeometry>
        </mxCell>
        <mxCell id="zwWPfgIZnlJsHh6AUtGG-99" style="edgeStyle=orthogonalEdgeStyle;rounded=0;orthogonalLoop=1;jettySize=auto;html=1;" edge="1" parent="zwWPfgIZnlJsHh6AUtGG-102" source="OHKGPh8YpkpOmDNxPamK-13" target="OHKGPh8YpkpOmDNxPamK-19">
          <mxGeometry relative="1" as="geometry" />
        </mxCell>
        <mxCell id="zwWPfgIZnlJsHh6AUtGG-101" style="edgeStyle=orthogonalEdgeStyle;rounded=0;orthogonalLoop=1;jettySize=auto;html=1;entryX=0;entryY=0.5;entryDx=0;entryDy=0;" edge="1" parent="zwWPfgIZnlJsHh6AUtGG-102" source="OHKGPh8YpkpOmDNxPamK-13" target="zwWPfgIZnlJsHh6AUtGG-100">
          <mxGeometry relative="1" as="geometry" />
        </mxCell>
        <mxCell id="OHKGPh8YpkpOmDNxPamK-13" value="Datos Bancarios" style="shape=ext;margin=3;double=1;whiteSpace=wrap;html=1;align=center;" parent="zwWPfgIZnlJsHh6AUtGG-102" vertex="1">
          <mxGeometry y="30" width="100" height="60" as="geometry" />
        </mxCell>
        <mxCell id="OHKGPh8YpkpOmDNxPamK-17" value="ID" style="ellipse;whiteSpace=wrap;html=1;align=center;dashed=1;" parent="zwWPfgIZnlJsHh6AUtGG-102" vertex="1">
          <mxGeometry x="180" width="100" height="40" as="geometry" />
        </mxCell>
        <mxCell id="OHKGPh8YpkpOmDNxPamK-19" value="Email" style="ellipse;shape=doubleEllipse;margin=3;whiteSpace=wrap;html=1;align=center;" parent="zwWPfgIZnlJsHh6AUtGG-102" vertex="1">
          <mxGeometry x="180" y="50" width="100" height="40" as="geometry" />
        </mxCell>
        <mxCell id="zwWPfgIZnlJsHh6AUtGG-100" value="Numero de tarjeta" style="ellipse;whiteSpace=wrap;html=1;align=center;" vertex="1" parent="zwWPfgIZnlJsHh6AUtGG-102">
          <mxGeometry x="180" y="100" width="100" height="40" as="geometry" />
        </mxCell>
        <mxCell id="zwWPfgIZnlJsHh6AUtGG-109" value="Agrega" style="rhombus;whiteSpace=wrap;html=1;" vertex="1" parent="zwWPfgIZnlJsHh6AUtGG-102">
          <mxGeometry x="10" y="390" width="80" height="80" as="geometry" />
        </mxCell>
        <mxCell id="zwWPfgIZnlJsHh6AUtGG-110" value="" style="edgeStyle=orthogonalEdgeStyle;rounded=0;orthogonalLoop=1;jettySize=auto;html=1;" edge="1" parent="zwWPfgIZnlJsHh6AUtGG-102" source="OHKGPh8YpkpOmDNxPamK-13" target="zwWPfgIZnlJsHh6AUtGG-109">
          <mxGeometry relative="1" as="geometry" />
        </mxCell>
        <mxCell id="zwWPfgIZnlJsHh6AUtGG-131" value="N,1" style="text;html=1;align=center;verticalAlign=middle;whiteSpace=wrap;rounded=0;rotation=-90;" vertex="1" parent="zwWPfgIZnlJsHh6AUtGG-102">
          <mxGeometry x="-30" y="415" width="60" height="30" as="geometry" />
        </mxCell>
        <mxCell id="zwWPfgIZnlJsHh6AUtGG-146" value="N,N" style="text;html=1;align=center;verticalAlign=middle;whiteSpace=wrap;rounded=0;rotation=90;" vertex="1" parent="zwWPfgIZnlJsHh6AUtGG-102">
          <mxGeometry x="230" y="385" width="60" height="30" as="geometry" />
        </mxCell>
        <mxCell id="zwWPfgIZnlJsHh6AUtGG-112" style="edgeStyle=orthogonalEdgeStyle;rounded=0;orthogonalLoop=1;jettySize=auto;html=1;" edge="1" parent="1" source="ZK7JMzUmp4q62pneLcJM-16" target="zwWPfgIZnlJsHh6AUtGG-109">
          <mxGeometry relative="1" as="geometry">
            <Array as="points">
              <mxPoint x="290" />
              <mxPoint x="50" />
            </Array>
          </mxGeometry>
        </mxCell>
        <mxCell id="zwWPfgIZnlJsHh6AUtGG-114" value="Agrega" style="rhombus;whiteSpace=wrap;html=1;" vertex="1" parent="1">
          <mxGeometry x="910" y="-709.995238095238" width="80" height="80" as="geometry" />
        </mxCell>
        <mxCell id="zwWPfgIZnlJsHh6AUtGG-115" value="" style="edgeStyle=orthogonalEdgeStyle;rounded=0;orthogonalLoop=1;jettySize=auto;html=1;" edge="1" parent="1" source="ZK7JMzUmp4q62pneLcJM-32" target="zwWPfgIZnlJsHh6AUtGG-114">
          <mxGeometry relative="1" as="geometry" />
        </mxCell>
        <mxCell id="zwWPfgIZnlJsHh6AUtGG-117" style="edgeStyle=orthogonalEdgeStyle;rounded=0;orthogonalLoop=1;jettySize=auto;html=1;entryX=0.5;entryY=0;entryDx=0;entryDy=0;" edge="1" parent="1" source="OHKGPh8YpkpOmDNxPamK-13" target="zwWPfgIZnlJsHh6AUtGG-114">
          <mxGeometry relative="1" as="geometry">
            <Array as="points">
              <mxPoint x="50" y="-800" />
              <mxPoint x="950" y="-800" />
            </Array>
          </mxGeometry>
        </mxCell>
        <mxCell id="zwWPfgIZnlJsHh6AUtGG-119" style="edgeStyle=orthogonalEdgeStyle;rounded=0;orthogonalLoop=1;jettySize=auto;html=1;entryX=0.017;entryY=0.501;entryDx=0;entryDy=0;entryPerimeter=0;" edge="1" parent="1" source="zwWPfgIZnlJsHh6AUtGG-2" target="zwWPfgIZnlJsHh6AUtGG-61">
          <mxGeometry relative="1" as="geometry">
            <Array as="points">
              <mxPoint x="490" y="640" />
              <mxPoint x="490" y="135" />
              <mxPoint x="620" y="135" />
              <mxPoint x="620" y="135" />
            </Array>
          </mxGeometry>
        </mxCell>
        <mxCell id="zwWPfgIZnlJsHh6AUtGG-120" style="edgeStyle=orthogonalEdgeStyle;rounded=0;orthogonalLoop=1;jettySize=auto;html=1;entryX=0;entryY=0.5;entryDx=0;entryDy=0;" edge="1" parent="1" source="zwWPfgIZnlJsHh6AUtGG-2" target="zwWPfgIZnlJsHh6AUtGG-96">
          <mxGeometry relative="1" as="geometry" />
        </mxCell>
        <mxCell id="zwWPfgIZnlJsHh6AUtGG-123" value="N,N" style="text;html=1;align=center;verticalAlign=middle;whiteSpace=wrap;rounded=0;" vertex="1" parent="1">
          <mxGeometry x="640" y="70" width="60" height="30" as="geometry" />
        </mxCell>
        <mxCell id="zwWPfgIZnlJsHh6AUtGG-124" value="N,N" style="text;html=1;align=center;verticalAlign=middle;whiteSpace=wrap;rounded=0;" vertex="1" parent="1">
          <mxGeometry x="680" y="580" width="60" height="30" as="geometry" />
        </mxCell>
        <mxCell id="zwWPfgIZnlJsHh6AUtGG-125" value="1,1" style="text;html=1;align=center;verticalAlign=middle;whiteSpace=wrap;rounded=0;rotation=-90;" vertex="1" parent="1">
          <mxGeometry x="1250" y="535" width="60" height="30" as="geometry" />
        </mxCell>
        <mxCell id="zwWPfgIZnlJsHh6AUtGG-126" value="N,N" style="text;html=1;align=center;verticalAlign=middle;whiteSpace=wrap;rounded=0;" vertex="1" parent="1">
          <mxGeometry x="830" y="860" width="60" height="30" as="geometry" />
        </mxCell>
        <mxCell id="zwWPfgIZnlJsHh6AUtGG-127" value="1,1" style="text;html=1;align=center;verticalAlign=middle;whiteSpace=wrap;rounded=0;" vertex="1" parent="1">
          <mxGeometry x="-600" y="325" width="60" height="30" as="geometry" />
        </mxCell>
        <mxCell id="zwWPfgIZnlJsHh6AUtGG-128" value="1,N" style="text;html=1;align=center;verticalAlign=middle;whiteSpace=wrap;rounded=0;rotation=90;" vertex="1" parent="1">
          <mxGeometry x="340" y="355" width="60" height="30" as="geometry" />
        </mxCell>
        <mxCell id="zwWPfgIZnlJsHh6AUtGG-129" value="N,1" style="text;html=1;align=center;verticalAlign=middle;whiteSpace=wrap;rounded=0;rotation=90;" vertex="1" parent="1">
          <mxGeometry x="-250" y="535" width="60" height="30" as="geometry" />
        </mxCell>
        <mxCell id="zwWPfgIZnlJsHh6AUtGG-130" value="N,1" style="text;html=1;align=center;verticalAlign=middle;whiteSpace=wrap;rounded=0;rotation=-90;" vertex="1" parent="1">
          <mxGeometry x="860" y="-685" width="60" height="30" as="geometry" />
        </mxCell>
      </root>
    </mxGraphModel>
  </diagram>
</mxfile>
